#!OML:ASF H:\Pregnant\Project 1\Capture day 1\Session 1\femalepreg.ASF
:FULLY-SPECIFIED
:DEGREES
516
root 3.40926 15.7664 13.1622 18.8133 -11.6635 -0.670537
lowerback -14.811 -1.30425 -1.21033
upperback -6.21911 -1.65423 1.7911
thorax 1.81531 -0.806399 2.29006
lowerneck -20.6035 -6.31784 -4.50525
upperneck 25.5715 -9.51317 6.43318
head 12.445 -3.85753 1.57082
rclavicle 1.83348e-014 8.15017e-015
rhumerus -32.9033 5.87314 -85.0865
rradius 26.6283
rwrist -3.69272
rhand -14.1042 -15.395
rfingers 7.12502
rthumb 12.0287 -45.0294
lclavicle 1.83348e-014 8.15017e-015
lhumerus -39.983 -2.73417 83.9294
lradius 31.7579
lwrist 31.9169
lhand -22.8681 -4.49031
lfingers 7.12502
lthumb 3.57044 25.4595
rfemur -29.709 25.6667 1.125
rtibia 26.735
rfoot -11.5904 -35.4755
rtoes -10.7596
lfemur -9.72224 3.21921 -10.9465
ltibia 3.18055e-015
lfoot -2.75614 16.0203
ltoes -9.91744
517
root 3.41653 15.7663 13.1693 18.8218 -11.5624 -0.546837
lowerback -14.7575 -1.29752 -1.32688
upperback -6.27528 -1.62669 1.70615
thorax 1.72682 -0.790621 2.27305
lowerneck -20.7015 -6.15234 -4.25329
upperneck 25.3891 -9.3337 6.41676
head 12.366 -3.75653 1.55257
rclavicle 1.27906e-014 -3.75703e-014
rhumerus -32.9124 6.2097 -85.3715
rradius 26.6089
rwrist -3.73915
rhand -14.1035 -15.3858
rfingers 7.12502
rthumb 12.0293 -45.0201
lclavicle 1.27906e-014 -3.75703e-014
lhumerus -40.0359 -2.67163 83.7253
lradius 31.5261
lwrist 32.0959
lhand -22.9282 -4.39401
lfingers 7.12502
lthumb 3.51243 25.5568
rfemur -29.6856 25.4935 1.02536
rtibia 26.813
rfoot -11.6564 -35.4514
rtoes -10.8732
lfemur -9.81978 3.11823 -11.1015
ltibia 1.43125e-014
lfoot -2.56936 15.9973
ltoes -10.6835
518
root 3.42383 15.7657 13.1768 18.8194 -11.4402 -0.423999
lowerback -14.6953 -1.29599 -1.44778
upperback -6.32665 -1.60578 1.62122
thorax 1.63919 -0.777998 2.25754
lowerneck -20.7567 -5.99047 -4.02004
upperneck 25.1588 -9.15319 6.4091
head 12.262 -3.65814 1.5416
rclavicle -8.28062e-015 1.19271e-014
rhumerus -32.9398 6.58242 -85.665
rradius 26.6019
rwrist -3.78847
rhand -14.1522 -15.3648
rfingers 7.12502
rthumb 11.9823 -45.0019
lclavicle -8.28062e-015 1.19271e-014
lhumerus -40.0721 -2.61572 83.5143
lradius 31.2754
lwrist 32.281
lhand -22.9864 -4.30818
lfingers 7.12502
lthumb 3.45624 25.6435
rfemur -29.6396 25.3475 0.930963
rtibia 26.8932
rfoot -11.7538 -35.4653
rtoes -10.9492
lfemur -9.90985 2.99557 -11.2491
ltibia 1.59028e-015
lfoot -2.37457 15.971
ltoes -11.4636
519
root 3.43119 15.7647 13.1846 18.8054 -11.294 -0.307373
lowerback -14.6237 -1.29808 -1.56469
upperback -6.36763 -1.59057 1.53564
thorax 1.55765 -0.768273 2.23818
lowerneck -20.7949 -5.83564 -3.79783
upperneck 24.8889 -8.97662 6.40277
head 12.1411 -3.56389 1.53229
rclavicle -3.51134e-014 1.59028e-014
rhumerus -32.9739 6.974 -85.9634
rradius 26.6024
rwrist -3.82887
rhand -14.2534 -15.3177
rfingers 7.12502
rthumb 11.8848 -44.9604
lclavicle -3.51134e-014 1.59028e-014
lhumerus -40.0809 -2.56546 83.2958
lradius 31.0064
lwrist 32.4666
lhand -23.0501 -4.24176
lfingers 7.12502
lthumb 3.39473 25.711
rfemur -29.5653 25.234 0.848278
rtibia 26.9693
rfoot -11.8768 -35.5237
rtoes -10.9903
lfemur -9.99073 2.85003 -11.3832
ltibia 1.90833e-014
lfoot -2.17543 15.9431
ltoes -12.2459
520
root 3.43874 15.7634 13.1927 18.781 -11.123 -0.20018
lowerback -14.5403 -1.30265 -1.67817
upperback -6.39508 -1.57955 1.45327
thorax 1.48421 -0.760706 2.21963
lowerneck -20.8424 -5.69217 -3.58298
upperneck 24.5911 -8.80846 6.38671
head 12.0126 -3.47587 1.51855
rclavicle 9.20621e-015 -1.94809e-014
rhumerus -33.007 7.3817 -86.2575
rradius 26.6127
rwrist -3.85319
rhand -14.3675 -15.2644
rfingers 7.12502
rthumb 11.7747 -44.9135
lclavicle 9.20621e-015 -1.94809e-014
lhumerus -40.0611 -2.51969 83.0774
lradius 30.7293
lwrist 32.6497
lhand -23.1111 -4.1085
lfingers 7.12502
lthumb 3.33582 25.8451
rfemur -29.4601 25.1508 0.781045
rtibia 27.0361
rfoot -12.0252 -35.622
rtoes -10.9907
lfemur -10.0628 2.68204 -11.5007
ltibia -1.27222e-014
lfoot -1.97443 15.9156
ltoes -13.014
521
root 3.44664 15.7617 13.2009 18.7473 -10.9297 -0.103059
lowerback -14.4427 -1.30697 -1.78582
upperback -6.41058 -1.56943 1.3726
thorax 1.41577 -0.753692 2.19953
lowerneck -20.9032 -5.56389 -3.36148
upperneck 24.2699 -8.6535 6.3408
head 11.8775 -3.39736 1.48985
rclavicle 2.74633e-014 -1.90833e-014
rhumerus -33.0406 7.7959 -86.5436
rradius 26.6343
rwrist -3.86051
rhand -14.4765 -15.2255
rfingers 7.12502
rthumb 11.6697 -44.8805
lclavicle 2.74633e-014 -1.90833e-014
lhumerus -40.0152 -2.48278 82.8613
lradius 30.447
lwrist 32.8282
lhand -23.1784 -4.0003
lfingers 7.12502
lthumb 3.27079 25.9544
rfemur -29.3246 25.088 0.73108
rtibia 27.0904
rfoot -12.1928 -35.7501
rtoes -10.9541
lfemur -10.1268 2.49408 -11.6023
ltibia -1.59028e-014
lfoot -1.7734 15.8887
ltoes -13.7571
522
root 3.45505 15.7598 13.2089 18.7121 -10.7152 -0.0159809
lowerback -14.3426 -1.3067 -1.88532
upperback -6.40929 -1.55447 1.28941
thorax 1.36312 -0.744611 2.17279
lowerneck -20.9947 -5.4536 -3.12789
upperneck 23.9299 -8.51806 6.26535
head 11.7415 -3.33013 1.4442
rclavicle -2.1183e-014 3.77691e-015
rhumerus -33.0617 8.19399 -86.8143
rradius 26.6622
rwrist -3.84835
rhand -14.5611 -15.2055
rfingers 7.12502
rthumb 11.5881 -44.8651
lclavicle -2.1183e-014 3.77691e-015
lhumerus -39.9258 -2.47353 82.6515
lradius 30.1582
lwrist 33.0144
lhand -23.2491 -3.88955
lfingers 7.12502
lthumb 3.20253 26.0661
rfemur -29.1678 25.0374 0.694584
rtibia 27.1298
rfoot -12.3714 -35.8996
rtoes -10.9016
lfemur -10.1922 2.2883 -11.6895
ltibia 0
lfoot -1.57008 15.8638
ltoes -14.4717
523
root 3.46412 15.7578 13.2167 18.6782 -10.486 0.0613168
lowerback -14.2355 -1.30535 -1.98376
upperback -6.40123 -1.53873 1.21202
thorax 1.31389 -0.735117 2.15165
lowerneck -21.0937 -5.35741 -2.89055
upperneck 23.5738 -8.39329 6.15487
head 11.6005 -3.27236 1.38324
rclavicle 1.16305e-014 -4.37326e-015
rhumerus -33.0857 8.59962 -87.066
rradius 26.698
rwrist -3.82895
rhand -14.6025 -15.2064
rfingers 7.12502
rthumb 11.5481 -44.8683
lclavicle 1.16305e-014 -4.37326e-015
lhumerus -39.819 -2.47336 82.4539
lradius 29.8742
lwrist 33.2027
lhand -23.3123 -3.75821
lfingers 7.12502
lthumb 3.1415 26.1984
rfemur -28.9967 24.9879 0.669689
rtibia 27.154
rfoot -12.5494 -36.0566
rtoes -10.8509
lfemur -10.2616 2.0709 -11.765
ltibia -4.77083e-015
lfoot -1.36813 15.842
ltoes -15.1278
524
root 3.47401 15.7555 13.2241 18.6497 -10.2454 0.127342
lowerback -14.1271 -1.30413 -2.08048
upperback -6.38611 -1.52386 1.14316
thorax 1.27157 -0.726063 2.13827
lowerneck -21.192 -5.27166 -2.67175
upperneck 23.198 -8.27411 6.03557
head 11.4538 -3.22072 1.3215
rclavicle 2.55935e-015 1.2921e-014
rhumerus -33.1087 9.02511 -87.2993
rradius 26.7397
rwrist -3.82314
rhand -14.6173 -15.2275
rfingers 7.12502
rthumb 11.5338 -44.8902
lclavicle 2.55935e-015 1.2921e-014
lhumerus -39.6961 -2.47164 82.2658
lradius 29.5968
lwrist 33.3826
lhand -23.3617 -3.66876
lfingers 7.12502
lthumb 3.09384 26.2885
rfemur -28.8177 24.9333 0.655591
rtibia 27.1639
rfoot -12.726 -36.2118
rtoes -10.7968
lfemur -10.3388 1.84586 -11.8288
ltibia -1.43125e-014
lfoot -1.16482 15.8221
ltoes -15.7395
525
root 3.48475 15.7531 13.2312 18.6263 -9.99454 0.182741
lowerback -14.0172 -1.29762 -2.16986
upperback -6.35886 -1.50307 1.07303
thorax 1.24062 -0.71438 2.12017
lowerneck -21.3132 -5.19935 -2.46661
upperneck 22.8104 -8.17064 5.92047
head 11.3101 -3.17681 1.26083
rclavicle -2.54444e-014 -2.04748e-014
rhumerus -33.1197 9.44756 -87.5174
rradius 26.7806
rwrist -3.8278
rhand -14.6196 -15.2299
rfingers 7.12502
rthumb 11.5317 -44.8927
lclavicle -2.54444e-014 -2.04748e-014
lhumerus -39.5479 -2.4943 82.0852
lradius 29.3337
lwrist 33.563
lhand -23.3973 -3.5567
lfingers 7.12502
lthumb 3.05943 26.4011
rfemur -28.6334 24.872 0.651134
rtibia 27.1615
rfoot -12.8917 -36.3658
rtoes -10.7627
lfemur -10.4241 1.61394 -11.8823
ltibia 3.97569e-014
lfoot -0.9571 15.8033
ltoes -16.3106
526
root 3.49628 15.7502 13.2381 18.6008 -9.73376 0.230684
lowerback -13.902 -1.29027 -2.26103
upperback -6.32171 -1.48129 1.00747
thorax 1.21728 -0.702258 2.10796
lowerneck -21.4445 -5.13697 -2.30711
upperneck 22.4147 -8.07642 5.84102
head 11.1709 -3.13673 1.21921
rclavicle 4.56351e-015 2.48481e-015
rhumerus -33.1291 9.88577 -87.7194
rradius 26.8287
rwrist -3.86407
rhand -14.6295 -15.21
rfingers 7.12502
rthumb 11.5221 -44.8734
lclavicle 4.56351e-015 2.48481e-015
lhumerus -39.3942 -2.52174 81.9136
lradius 29.0984
lwrist 33.732
lhand -23.4124 -3.4113
lfingers 7.12502
lthumb 3.04487 26.5467
rfemur -28.4364 24.8071 0.656194
rtibia 27.1493
rfoot -13.0546 -36.5188
rtoes -10.7396
lfemur -10.5098 1.3735 -11.9283
ltibia -2.38542e-014
lfoot -0.744879 15.7835
ltoes -16.8408
527
root 3.50863 15.7467 13.2449 18.5715 -9.46333 0.271907
lowerback -13.7772 -1.28487 -2.35458
upperback -6.27792 -1.46235 0.948284
thorax 1.19606 -0.691506 2.10338
lowerneck -21.5774 -5.08256 -2.18617
upperneck 22.0104 -7.98816 5.78776
head 11.033 -3.09973 1.19262
rclavicle -5.14806e-014 -6.95746e-016
rhumerus -33.1383 10.3432 -87.907
rradius 26.8773
rwrist -3.92361
rhand -14.6522 -15.1714
rfingers 7.12502
rthumb 11.5001 -44.8359
lclavicle -5.14806e-014 -6.95746e-016
lhumerus -39.2359 -2.54031 81.7469
lradius 28.8827
lwrist 33.876
lhand -23.4036 -3.28581
lfingers 7.12502
lthumb 3.05329 26.6721
rfemur -28.2262 24.7367 0.67101
rtibia 27.1298
rfoot -13.2177 -36.6701
rtoes -10.7231
lfemur -10.5939 1.12427 -11.9678
ltibia -1.59028e-015
lfoot -0.527639 15.7591
ltoes -17.3312
528
root 3.52182 15.7428 13.2515 18.5416 -9.1832 0.305569
lowerback -13.6454 -1.27718 -2.44601
upperback -6.22989 -1.44099 0.888754
thorax 1.17525 -0.679627 2.09764
lowerneck -21.7165 -5.03882 -2.10649
upperneck 21.6072 -7.91399 5.77812
head 10.9023 -3.06709 1.18622
rclavicle 5.24741e-015 2.68359e-015
rhumerus -33.1479 10.7969 -88.0816
rradius 26.926
rwrist -3.99901
rhand -14.662 -15.1391
rfingers 7.12502
rthumb 11.4907 -44.8042
lclavicle 5.24741e-015 2.68359e-015
lhumerus -39.0752 -2.57347 81.5852
lradius 28.6953
lwrist 34.0055
lhand -23.3791 -3.11694
lfingers 7.12502
lthumb 3.07696 26.8406
rfemur -28.0069 24.6558 0.695756
rtibia 27.1038
rfoot -13.3829 -36.8152
rtoes -10.7079
lfemur -10.6807 0.867062 -11.9996
ltibia 1.27222e-014
lfoot -0.305603 15.7297
ltoes -17.765
529
root 3.53593 15.7382 13.2581 18.5102 -8.89677 0.3305
lowerback -13.5042 -1.26603 -2.53167
upperback -6.17846 -1.41621 0.827975
thorax 1.15254 -0.66616 2.08792
lowerneck -21.8485 -5.00905 -2.03621
upperneck 21.1967 -7.85756 5.77243
head 10.7697 -3.04333 1.18013
rclavicle -2.2792e-014 -1.19271e-014
rhumerus -33.1557 11.2457 -88.2453
rradius 26.9688
rwrist -4.08752
rhand -14.6518 -15.1211
rfingers 7.12502
rthumb 11.5006 -44.7856
lclavicle -2.2792e-014 -1.19271e-014
lhumerus -38.9155 -2.61707 81.425
lradius 28.5417
lwrist 34.1138
lhand -23.344 -2.92061
lfingers 7.12502
lthumb 3.11085 27.0364
rfemur -27.7795 24.5578 0.732757
rtibia 27.0716
rfoot -13.5521 -36.9463
rtoes -10.6755
lfemur -10.7678 0.605392 -12.0232
ltibia 3.33958e-014
lfoot -0.0814068 15.6918
ltoes -18.1414
